<?xml version="1.0" encoding="UTF-8" standalone="no"?>
<!-- Created with Inkscape (http://www.inkscape.org/) -->

<svg
   xmlns:dc="http://purl.org/dc/elements/1.1/"
   xmlns:cc="http://creativecommons.org/ns#"
   xmlns:rdf="http://www.w3.org/1999/02/22-rdf-syntax-ns#"
   xmlns:svg="http://www.w3.org/2000/svg"
   xmlns="http://www.w3.org/2000/svg"
   xmlns:xlink="http://www.w3.org/1999/xlink"
   xmlns:sodipodi="http://sodipodi.sourceforge.net/DTD/sodipodi-0.dtd"
   xmlns:inkscape="http://www.inkscape.org/namespaces/inkscape"
   width="512mm"
   height="512mm"
   viewBox="0 0 512 512"
   version="1.1"
   id="svg3705"
   inkscape:version="0.92.2 2405546, 2018-03-11"
   sodipodi:docname="cantata.svg"
   inkscape:export-filename="/home/cybernix/Документы/neon/places/cantata.png"
   inkscape:export-xdpi="25.4"
   inkscape:export-ydpi="25.4">
  <defs
     id="defs3699">
    <linearGradient
       inkscape:collect="always"
       id="linearGradient947">
      <stop
         style="stop-color:#536dfe;stop-opacity:1"
         offset="0"
         id="stop943" />
      <stop
         style="stop-color:#69f0ae;stop-opacity:1"
         offset="1"
         id="stop945" />
    </linearGradient>
    <filter
       inkscape:menu="Shadows and Glows"
       inkscape:menu-tooltip="Cut out, add inner shadow and colorize some parts of an image"
       style="color-interpolation-filters:sRGB;"
       inkscape:label="Emergence"
       id="filter1182">
      <feColorMatrix
         values="0 0 0 0 0 0 0 0 0 0 0 0 0 0 0 0.21 0.72 0.07 0 0 "
         result="result1"
         id="feColorMatrix1154" />
      <feColorMatrix
         values="1 0 0 0 0 0 1 0 0 0 0 0 1 0 0 0 0 0 2 0 "
         result="result9"
         id="feColorMatrix1156" />
      <feComposite
         in2="result9"
         in="SourceGraphic"
         operator="in"
         result="result4"
         id="feComposite1158" />
      <feFlood
         result="result2"
         flood-color="rgb(0,0,0)"
         id="feFlood1160" />
      <feComposite
         in2="result9"
         operator="in"
         result="result10"
         id="feComposite1162" />
      <feComposite
         in2="result4"
         operator="atop"
         id="feComposite1164" />
      <feGaussianBlur
         stdDeviation="3"
         result="result8"
         id="feGaussianBlur1166" />
      <feOffset
         dx="3"
         dy="3"
         result="result3"
         in="result8"
         id="feOffset1168" />
      <feFlood
         flood-opacity="1"
         flood-color="rgb(219,173,62)"
         result="result5"
         id="feFlood1170" />
      <feMerge
         result="result6"
         id="feMerge1178">
        <feMergeNode
           in="result5"
           id="feMergeNode1172" />
        <feMergeNode
           in="result3"
           id="feMergeNode1174" />
        <feMergeNode
           in="result4"
           id="feMergeNode1176" />
      </feMerge>
      <feComposite
         in2="SourceGraphic"
         operator="in"
         result="result7"
         id="feComposite1180" />
    </filter>
    <filter
       inkscape:menu="Shadows and Glows"
       inkscape:menu-tooltip="Cut out, add inner shadow and colorize some parts of an image"
       style="color-interpolation-filters:sRGB;"
       inkscape:label="Emergence"
       id="filter1212">
      <feColorMatrix
         values="0 0 0 0 0 0 0 0 0 0 0 0 0 0 0 0.21 0.72 0.07 0 0 "
         result="result1"
         id="feColorMatrix1184" />
      <feColorMatrix
         values="1 0 0 0 0 0 1 0 0 0 0 0 1 0 0 0 0 0 2 0 "
         result="result9"
         id="feColorMatrix1186" />
      <feComposite
         in2="result9"
         in="SourceGraphic"
         operator="in"
         result="result4"
         id="feComposite1188" />
      <feFlood
         result="result2"
         flood-color="rgb(0,0,0)"
         id="feFlood1190" />
      <feComposite
         in2="result9"
         operator="in"
         result="result10"
         id="feComposite1192" />
      <feComposite
         in2="result4"
         operator="atop"
         id="feComposite1194" />
      <feGaussianBlur
         stdDeviation="3"
         result="result8"
         id="feGaussianBlur1196" />
      <feOffset
         dx="3"
         dy="3"
         result="result3"
         in="result8"
         id="feOffset1198" />
      <feFlood
         flood-opacity="1"
         flood-color="rgb(219,173,62)"
         result="result5"
         id="feFlood1200" />
      <feMerge
         result="result6"
         id="feMerge1208">
        <feMergeNode
           in="result5"
           id="feMergeNode1202" />
        <feMergeNode
           in="result3"
           id="feMergeNode1204" />
        <feMergeNode
           in="result4"
           id="feMergeNode1206" />
      </feMerge>
      <feComposite
         in2="SourceGraphic"
         operator="in"
         result="result7"
         id="feComposite1210" />
    </filter>
    <linearGradient
       inkscape:collect="always"
       xlink:href="#linearGradient947"
       id="linearGradient980"
       x1="254"
       y1="233.5"
       x2="254"
       y2="-147.5"
       gradientUnits="userSpaceOnUse"
       gradientTransform="matrix(3.7795276,0,0,3.7795276,7.0551178e-6,812.59935)" />
    <linearGradient
       inkscape:collect="always"
       xlink:href="#linearGradient947"
       id="linearGradient955"
       x1="328.08334"
       y1="233.5"
       x2="328.08334"
       y2="-147.5"
       gradientUnits="userSpaceOnUse" />
    <linearGradient
       inkscape:collect="always"
       xlink:href="#linearGradient947"
       id="linearGradient959"
       gradientUnits="userSpaceOnUse"
       x1="328.08334"
       y1="233.5"
       x2="328.08334"
       y2="-147.5"
       gradientTransform="translate(-169.33334)" />
    <linearGradient
       inkscape:collect="always"
       xlink:href="#linearGradient947"
       id="linearGradient963"
       gradientUnits="userSpaceOnUse"
       x1="328.08334"
       y1="402.83334"
       x2="317.5"
       y2="21.833347"
       gradientTransform="translate(-84.666677,-169.33335)" />
    <linearGradient
       inkscape:collect="always"
       xlink:href="#linearGradient947"
       id="linearGradient971"
       x1="254"
       y1="233.5"
       x2="254"
       y2="-147.5"
       gradientUnits="userSpaceOnUse" />
    <linearGradient
       inkscape:collect="always"
       xlink:href="#linearGradient947"
       id="linearGradient985"
       gradientUnits="userSpaceOnUse"
       gradientTransform="matrix(3.7795276,0,0,3.7795276,7.0551179e-6,812.59934)"
       x1="254"
       y1="233.5"
       x2="254"
       y2="-147.5" />
    <filter
       inkscape:collect="always"
       style="color-interpolation-filters:sRGB"
       id="filter1004"
       x="-0.13204426"
       width="1.2640885"
       y="-0.10996928"
       height="1.2199386">
      <feGaussianBlur
         inkscape:collect="always"
         stdDeviation="65.779491"
         id="feGaussianBlur1006" />
    </filter>
  </defs>
  <sodipodi:namedview
     id="base"
     pagecolor="#ffffff"
     bordercolor="#666666"
     borderopacity="1.0"
     inkscape:pageopacity="0.0"
     inkscape:pageshadow="2"
     inkscape:zoom="0.26870058"
     inkscape:cx="-88.995422"
     inkscape:cy="480.16558"
     inkscape:document-units="mm"
     inkscape:current-layer="layer1"
     showgrid="true"
     showguides="true"
     inkscape:guide-bbox="true"
     inkscape:window-width="1920"
     inkscape:window-height="1029"
     inkscape:window-x="0"
     inkscape:window-y="26"
     inkscape:window-maximized="1"
     inkscape:measure-start="0,0"
     inkscape:measure-end="0,0">
    <inkscape:grid
       type="xygrid"
       id="grid3707" />
    <sodipodi:guide
       position="613.83332,465.66665"
       orientation="0,1"
       id="guide3711"
       inkscape:locked="false" />
    <sodipodi:guide
       position="550.33332,42.333332"
       orientation="0,1"
       id="guide3715"
       inkscape:locked="false" />
    <sodipodi:guide
       position="253.99999,264.58333"
       orientation="1,0"
       id="guide3717"
       inkscape:locked="false" />
    <sodipodi:guide
       position="465.66665,253.99999"
       orientation="0,1"
       id="guide3719"
       inkscape:locked="false" />
    <sodipodi:guide
       position="455.08332,42.333332"
       orientation="0,1"
       id="guide3742"
       inkscape:locked="false" />
    <sodipodi:guide
       position="571.49998,592.66665"
       orientation="4.2706773e-08,-1"
       id="guide3744"
       inkscape:locked="false" />
    <sodipodi:guide
       position="529.16665,465.66665"
       orientation="0,1"
       id="guide3748"
       inkscape:locked="false" />
    <sodipodi:guide
       position="571.49998,613.83332"
       orientation="0,1"
       id="guide888"
       inkscape:locked="false" />
    <sodipodi:guide
       position="253.99999,296.33333"
       orientation="1,0"
       id="guide976"
       inkscape:locked="false" />
    <sodipodi:guide
       position="253.99999,296.33333"
       orientation="1,0"
       id="guide978"
       inkscape:locked="false" />
    <sodipodi:guide
       position="507.99999,698.49998"
       orientation="0,1"
       id="guide946"
       inkscape:locked="false" />
    <sodipodi:guide
       position="42.333332,550.33332"
       orientation="1,0"
       id="guide948"
       inkscape:locked="false" />
    <sodipodi:guide
       position="444.49999,42.333332"
       orientation="0,1"
       id="guide950"
       inkscape:locked="false" />
    <sodipodi:guide
       position="21.166666,444.49999"
       orientation="0,1"
       id="guide2591"
       inkscape:locked="false" />
    <sodipodi:guide
       position="529.16665,63.499998"
       orientation="0,1"
       id="guide2593"
       inkscape:locked="false" />
  </sodipodi:namedview>
  <metadata
     id="metadata3702">
    <rdf:RDF>
      <cc:Work
         rdf:about="">
        <dc:format>image/svg+xml</dc:format>
        <dc:type
           rdf:resource="http://purl.org/dc/dcmitype/StillImage" />
        <dc:title></dc:title>
      </cc:Work>
    </rdf:RDF>
  </metadata>
  <g
     inkscape:label="Layer 1"
     inkscape:groupmode="layer"
     id="layer1"
     transform="translate(0,215)">
    <path
       style="opacity:1;fill:none;fill-opacity:1;stroke:url(#linearGradient980);stroke-width:75.59055328;stroke-linecap:round;stroke-linejoin:round;stroke-miterlimit:4;stroke-dasharray:none;stroke-opacity:1"
       d="M 960 295.11719 C 780.24473 295.11719 628.91748 412.50653 578.17578 575.11719 L 560 575.11719 C 471.36003 575.11719 400 646.47717 400 735.11719 L 400 1495.1172 C 400 1583.7572 471.36003 1655.1172 560 1655.1172 L 1360 1655.1172 C 1448.64 1655.1172 1520 1583.7572 1520 1495.1172 L 1520 735.11719 C 1520 646.47717 1448.64 575.11719 1360 575.11719 L 1341.8242 575.11719 C 1291.0825 412.50653 1139.7553 295.11719 960 295.11719 z "
       transform="matrix(0.26458333,0,0,0.26458333,0,-215)"
       id="rect936" />
    <rect
       style="opacity:1;fill:none;fill-opacity:1;stroke:url(#linearGradient971);stroke-width:20;stroke-linecap:round;stroke-linejoin:round;stroke-miterlimit:4;stroke-dasharray:none;stroke-opacity:1"
       id="rect937"
       width="148.16666"
       height="148.16667"
       x="179.91667"
       y="-94.583336"
       rx="74.083313"
       ry="74.083336" />
    <rect
       style="opacity:1;fill:none;fill-opacity:1;stroke:url(#linearGradient955);stroke-width:20;stroke-linecap:round;stroke-linejoin:round;stroke-miterlimit:4;stroke-dasharray:none;stroke-opacity:1"
       id="rect941"
       width="42.333332"
       height="42.333332"
       x="317.5"
       y="127.66668"
       rx="74.083336"
       ry="42.333332" />
    <path
       style="color:#000000;font-style:normal;font-variant:normal;font-weight:normal;font-stretch:normal;font-size:medium;line-height:normal;font-family:sans-serif;font-variant-ligatures:normal;font-variant-position:normal;font-variant-caps:normal;font-variant-numeric:normal;font-variant-alternates:normal;font-feature-settings:normal;text-indent:0;text-align:start;text-decoration:none;text-decoration-line:none;text-decoration-style:solid;text-decoration-color:#000000;letter-spacing:normal;word-spacing:normal;text-transform:none;writing-mode:lr-tb;direction:ltr;text-orientation:mixed;dominant-baseline:auto;baseline-shift:baseline;text-anchor:start;white-space:normal;shape-padding:0;clip-rule:nonzero;display:inline;overflow:visible;visibility:visible;opacity:1;isolation:auto;mix-blend-mode:normal;color-interpolation:sRGB;color-interpolation-filters:linearRGB;solid-color:#000000;solid-opacity:1;vector-effect:none;fill:url(#linearGradient985);fill-opacity:1;fill-rule:nonzero;stroke:none;stroke-width:75.59055328;stroke-linecap:round;stroke-linejoin:round;stroke-miterlimit:4;stroke-dasharray:none;stroke-dashoffset:0;stroke-opacity:1;color-rendering:auto;image-rendering:auto;shape-rendering:auto;text-rendering:auto;enable-background:accumulate;filter:url(#filter1004)"
       d="M 960 257.32227 C 773.60946 257.32227 614.44019 373.28803 551.33398 537.54297 C 446.40455 542.11091 362.20508 629.09846 362.20508 735.11719 L 362.20508 1495.1172 C 362.20508 1604.042 451.07523 1692.9121 560 1692.9121 L 1360 1692.9121 C 1468.9248 1692.9121 1557.7949 1604.042 1557.7949 1495.1172 L 1557.7949 735.11719 C 1557.7949 629.09847 1473.5955 542.11091 1368.666 537.54297 C 1305.5598 373.28807 1146.3905 257.32227 960 257.32227 z M 960 332.91211 C 1123.3005 332.91211 1259.8267 439.22461 1305.7441 586.375 A 37.799055 37.799055 0 0 0 1341.8242 612.91211 L 1360 612.91211 C 1428.3552 612.91211 1482.2051 666.76199 1482.2051 735.11719 L 1482.2051 1495.1172 C 1482.2051 1563.4724 1428.3552 1617.3223 1360 1617.3223 L 560 1617.3223 C 491.6449 1617.3223 437.79492 1563.4723 437.79492 1495.1172 L 437.79492 735.11719 C 437.79492 666.762 491.64486 612.91211 560 612.91211 L 578.17578 612.91211 A 37.799055 37.799055 0 0 0 614.25586 586.375 C 660.17326 439.22462 796.69954 332.91211 960 332.91211 z M 960 417.32031 C 784.59523 417.32031 642.20313 559.71236 642.20312 735.11719 C 642.20312 910.52202 784.59523 1052.916 960 1052.916 C 1135.4048 1052.916 1277.7969 910.52202 1277.7969 735.11719 C 1277.7969 559.71236 1135.4048 417.32031 960 417.32031 z M 960 492.91016 C 1094.8351 492.91016 1202.207 600.28201 1202.207 735.11719 C 1202.207 869.95237 1094.8351 977.32617 960 977.32617 C 825.16486 977.32617 717.79297 869.95237 717.79297 735.11719 C 717.79297 600.28201 825.16486 492.91016 960 492.91016 z M 960 577.32227 C 873.23516 577.32227 802.20508 648.35236 802.20508 735.11719 C 802.20508 821.88202 873.23516 892.91406 960 892.91406 C 1046.7648 892.91406 1117.7949 821.88202 1117.7949 735.11719 C 1117.7949 648.35236 1046.7648 577.32227 960 577.32227 z M 960 652.91406 C 1006.1952 652.91406 1042.2051 688.92202 1042.2051 735.11719 C 1042.2051 781.31236 1006.1952 817.32227 960 817.32227 C 913.80484 817.32227 877.79492 781.31236 877.79492 735.11719 C 877.79492 688.92202 913.80484 652.91406 960 652.91406 z M 640.00195 1257.3203 C 575.39713 1257.3203 522.20312 1310.5163 522.20312 1375.1211 C 522.20312 1439.726 575.39713 1492.9141 640.00195 1492.9141 C 704.60682 1492.9141 757.79492 1439.726 757.79492 1375.1211 C 757.79492 1310.5163 704.60682 1257.3203 640.00195 1257.3203 z M 1279.998 1257.3203 C 1215.3932 1257.3203 1162.2051 1310.5163 1162.2051 1375.1211 C 1162.2051 1439.726 1215.3932 1492.9141 1279.998 1492.9141 C 1344.6029 1492.9141 1397.7969 1439.726 1397.7969 1375.1211 C 1397.7969 1310.5163 1344.6029 1257.3203 1279.998 1257.3203 z M 640.00195 1332.9102 C 664.03714 1332.9102 682.20508 1351.0859 682.20508 1375.1211 C 682.20508 1399.1563 664.03714 1417.3223 640.00195 1417.3223 C 615.9668 1417.3223 597.79297 1399.1563 597.79297 1375.1211 C 597.79297 1351.0859 615.9668 1332.9102 640.00195 1332.9102 z M 1279.998 1332.9102 C 1304.0332 1332.9102 1322.207 1351.0859 1322.207 1375.1211 C 1322.207 1399.1563 1304.0332 1417.3223 1279.998 1417.3223 C 1255.9629 1417.3223 1237.7949 1399.1563 1237.7949 1375.1211 C 1237.7949 1351.0859 1255.9629 1332.9102 1279.998 1332.9102 z "
       transform="matrix(0.26458333,0,0,0.26458333,0,-215)"
       id="path973" />
    <rect
       ry="42.333332"
       rx="74.083336"
       y="127.66668"
       x="148.16666"
       height="42.333332"
       width="42.333332"
       id="rect957"
       style="opacity:1;fill:none;fill-opacity:1;stroke:url(#linearGradient959);stroke-width:20;stroke-linecap:round;stroke-linejoin:round;stroke-miterlimit:4;stroke-dasharray:none;stroke-opacity:1" />
    <rect
       ry="31.75"
       rx="31.75"
       y="-52.25"
       x="222.25"
       height="63.5"
       width="63.5"
       id="rect961"
       style="opacity:1;fill:none;fill-opacity:1;stroke:url(#linearGradient963);stroke-width:20;stroke-linecap:round;stroke-linejoin:round;stroke-miterlimit:4;stroke-dasharray:none;stroke-opacity:1" />
  </g>
</svg>
