<?xml version="1.0" encoding="UTF-8" standalone="no"?>
<!-- Created with Inkscape (http://www.inkscape.org/) -->

<svg
   xmlns:dc="http://purl.org/dc/elements/1.1/"
   xmlns:cc="http://creativecommons.org/ns#"
   xmlns:rdf="http://www.w3.org/1999/02/22-rdf-syntax-ns#"
   xmlns:svg="http://www.w3.org/2000/svg"
   xmlns="http://www.w3.org/2000/svg"
   xmlns:xlink="http://www.w3.org/1999/xlink"
   xmlns:sodipodi="http://sodipodi.sourceforge.net/DTD/sodipodi-0.dtd"
   xmlns:inkscape="http://www.inkscape.org/namespaces/inkscape"
   width="512mm"
   height="512mm"
   viewBox="0 0 512 512"
   version="1.1"
   id="svg3705"
   inkscape:version="0.92.2 2405546, 2018-03-11"
   sodipodi:docname="folder-temp.svg"
   inkscape:export-filename="/home/cybernix/Документы/neon/places/folder-music.png"
   inkscape:export-xdpi="25.4"
   inkscape:export-ydpi="25.4">
  <defs
     id="defs3699">
    <linearGradient
       inkscape:collect="always"
       id="linearGradient882">
      <stop
         style="stop-color:#536dfe;stop-opacity:1"
         offset="0"
         id="stop878" />
      <stop
         style="stop-color:#ffb74d;stop-opacity:1"
         offset="1"
         id="stop880" />
    </linearGradient>
    <filter
       inkscape:menu="Shadows and Glows"
       inkscape:menu-tooltip="Cut out, add inner shadow and colorize some parts of an image"
       style="color-interpolation-filters:sRGB;"
       inkscape:label="Emergence"
       id="filter1182">
      <feColorMatrix
         values="0 0 0 0 0 0 0 0 0 0 0 0 0 0 0 0.21 0.72 0.07 0 0 "
         result="result1"
         id="feColorMatrix1154" />
      <feColorMatrix
         values="1 0 0 0 0 0 1 0 0 0 0 0 1 0 0 0 0 0 2 0 "
         result="result9"
         id="feColorMatrix1156" />
      <feComposite
         in2="result9"
         in="SourceGraphic"
         operator="in"
         result="result4"
         id="feComposite1158" />
      <feFlood
         result="result2"
         flood-color="rgb(0,0,0)"
         id="feFlood1160" />
      <feComposite
         in2="result9"
         operator="in"
         result="result10"
         id="feComposite1162" />
      <feComposite
         in2="result4"
         operator="atop"
         id="feComposite1164" />
      <feGaussianBlur
         stdDeviation="3"
         result="result8"
         id="feGaussianBlur1166" />
      <feOffset
         dx="3"
         dy="3"
         result="result3"
         in="result8"
         id="feOffset1168" />
      <feFlood
         flood-opacity="1"
         flood-color="rgb(219,173,62)"
         result="result5"
         id="feFlood1170" />
      <feMerge
         result="result6"
         id="feMerge1178">
        <feMergeNode
           in="result5"
           id="feMergeNode1172" />
        <feMergeNode
           in="result3"
           id="feMergeNode1174" />
        <feMergeNode
           in="result4"
           id="feMergeNode1176" />
      </feMerge>
      <feComposite
         in2="SourceGraphic"
         operator="in"
         result="result7"
         id="feComposite1180" />
    </filter>
    <filter
       inkscape:menu="Shadows and Glows"
       inkscape:menu-tooltip="Cut out, add inner shadow and colorize some parts of an image"
       style="color-interpolation-filters:sRGB;"
       inkscape:label="Emergence"
       id="filter1212">
      <feColorMatrix
         values="0 0 0 0 0 0 0 0 0 0 0 0 0 0 0 0.21 0.72 0.07 0 0 "
         result="result1"
         id="feColorMatrix1184" />
      <feColorMatrix
         values="1 0 0 0 0 0 1 0 0 0 0 0 1 0 0 0 0 0 2 0 "
         result="result9"
         id="feColorMatrix1186" />
      <feComposite
         in2="result9"
         in="SourceGraphic"
         operator="in"
         result="result4"
         id="feComposite1188" />
      <feFlood
         result="result2"
         flood-color="rgb(0,0,0)"
         id="feFlood1190" />
      <feComposite
         in2="result9"
         operator="in"
         result="result10"
         id="feComposite1192" />
      <feComposite
         in2="result4"
         operator="atop"
         id="feComposite1194" />
      <feGaussianBlur
         stdDeviation="3"
         result="result8"
         id="feGaussianBlur1196" />
      <feOffset
         dx="3"
         dy="3"
         result="result3"
         in="result8"
         id="feOffset1198" />
      <feFlood
         flood-opacity="1"
         flood-color="rgb(219,173,62)"
         result="result5"
         id="feFlood1200" />
      <feMerge
         result="result6"
         id="feMerge1208">
        <feMergeNode
           in="result5"
           id="feMergeNode1202" />
        <feMergeNode
           in="result3"
           id="feMergeNode1204" />
        <feMergeNode
           in="result4"
           id="feMergeNode1206" />
      </feMerge>
      <feComposite
         in2="SourceGraphic"
         operator="in"
         result="result7"
         id="feComposite1210" />
    </filter>
    <linearGradient
       inkscape:collect="always"
       xlink:href="#linearGradient882"
       id="linearGradient884"
       x1="960"
       y1="1695.1182"
       x2="960"
       y2="255.1181"
       gradientUnits="userSpaceOnUse" />
    <linearGradient
       inkscape:collect="always"
       xlink:href="#linearGradient882"
       id="linearGradient890"
       gradientUnits="userSpaceOnUse"
       x1="960"
       y1="1695.1182"
       x2="960"
       y2="255.1181"
       gradientTransform="matrix(0.26458333,0,0,0.26458333,0,-215)" />
    <filter
       inkscape:collect="always"
       style="color-interpolation-filters:sRGB"
       id="filter900"
       x="-0.13204427"
       width="1.2640885"
       y="-0.10996928"
       height="1.2199386">
      <feGaussianBlur
         inkscape:collect="always"
         stdDeviation="17.404157"
         id="feGaussianBlur902" />
    </filter>
  </defs>
  <sodipodi:namedview
     id="base"
     pagecolor="#ffffff"
     bordercolor="#666666"
     borderopacity="1.0"
     inkscape:pageopacity="0.0"
     inkscape:pageshadow="2"
     inkscape:zoom="0.19"
     inkscape:cx="898.1719"
     inkscape:cy="1017.4945"
     inkscape:document-units="mm"
     inkscape:current-layer="layer1"
     showgrid="true"
     showguides="true"
     inkscape:guide-bbox="true"
     inkscape:window-width="1920"
     inkscape:window-height="1029"
     inkscape:window-x="0"
     inkscape:window-y="26"
     inkscape:window-maximized="1"
     inkscape:measure-start="0,0"
     inkscape:measure-end="0,0">
    <inkscape:grid
       type="xygrid"
       id="grid3707" />
    <sodipodi:guide
       position="613.83332,465.66665"
       orientation="0,1"
       id="guide3711"
       inkscape:locked="false" />
    <sodipodi:guide
       position="550.33332,42.333332"
       orientation="0,1"
       id="guide3715"
       inkscape:locked="false" />
    <sodipodi:guide
       position="253.99999,264.58333"
       orientation="1,0"
       id="guide3717"
       inkscape:locked="false" />
    <sodipodi:guide
       position="550.33332,253.99999"
       orientation="0,1"
       id="guide3719"
       inkscape:locked="false" />
    <sodipodi:guide
       position="455.08332,42.333332"
       orientation="0,1"
       id="guide3742"
       inkscape:locked="false" />
    <sodipodi:guide
       position="571.49998,592.66665"
       orientation="4.2706773e-08,-1"
       id="guide3744"
       inkscape:locked="false" />
    <sodipodi:guide
       position="529.16665,465.66665"
       orientation="0,1"
       id="guide3748"
       inkscape:locked="false" />
    <sodipodi:guide
       position="571.49998,613.83332"
       orientation="0,1"
       id="guide888"
       inkscape:locked="false" />
    <sodipodi:guide
       position="253.99999,296.33333"
       orientation="1,0"
       id="guide976"
       inkscape:locked="false" />
    <sodipodi:guide
       position="253.99999,296.33333"
       orientation="1,0"
       id="guide978"
       inkscape:locked="false" />
    <sodipodi:guide
       position="507.99999,698.49998"
       orientation="0,1"
       id="guide946"
       inkscape:locked="false" />
    <sodipodi:guide
       position="42.333332,550.33332"
       orientation="1,0"
       id="guide948"
       inkscape:locked="false" />
    <sodipodi:guide
       position="444.49999,42.333332"
       orientation="0,1"
       id="guide950"
       inkscape:locked="false" />
    <sodipodi:guide
       position="21.166666,444.49999"
       orientation="0,1"
       id="guide2591"
       inkscape:locked="false" />
    <sodipodi:guide
       position="529.16665,63.499998"
       orientation="0,1"
       id="guide2593"
       inkscape:locked="false" />
  </sodipodi:namedview>
  <metadata
     id="metadata3702">
    <rdf:RDF>
      <cc:Work
         rdf:about="">
        <dc:format>image/svg+xml</dc:format>
        <dc:type
           rdf:resource="http://purl.org/dc/dcmitype/StillImage" />
        <dc:title></dc:title>
      </cc:Work>
    </rdf:RDF>
  </metadata>
  <g
     inkscape:label="Layer 1"
     inkscape:groupmode="layer"
     id="layer1"
     transform="translate(0,215)">
    <path
       style="color:#000000;font-style:normal;font-variant:normal;font-weight:normal;font-stretch:normal;font-size:medium;line-height:normal;font-family:sans-serif;font-variant-ligatures:normal;font-variant-position:normal;font-variant-caps:normal;font-variant-numeric:normal;font-variant-alternates:normal;font-feature-settings:normal;text-indent:0;text-align:start;text-decoration:none;text-decoration-line:none;text-decoration-style:solid;text-decoration-color:#000000;letter-spacing:normal;word-spacing:normal;text-transform:none;writing-mode:lr-tb;direction:ltr;text-orientation:mixed;dominant-baseline:auto;baseline-shift:baseline;text-anchor:start;white-space:normal;shape-padding:0;clip-rule:nonzero;display:inline;overflow:visible;visibility:visible;opacity:1;isolation:auto;mix-blend-mode:normal;color-interpolation:sRGB;color-interpolation-filters:linearRGB;solid-color:#000000;solid-opacity:1;vector-effect:none;fill:url(#linearGradient890);fill-opacity:1;fill-rule:nonzero;stroke:none;stroke-width:20;stroke-linecap:butt;stroke-linejoin:miter;stroke-miterlimit:4;stroke-dasharray:none;stroke-dashoffset:0;stroke-opacity:1;color-rendering:auto;image-rendering:auto;shape-rendering:auto;text-rendering:auto;enable-background:accumulate;filter:url(#filter900)"
       d="m 148.16666,-146.91682 c -18.09722,0 -32.71072,6.83987 -41.2104,18.73943 -8.499678,11.89955 -11.122834,27.19104 -11.122834,44.177145 0,19.208334 9.677754,35.601595 22.629624,49.093127 12.95187,13.49153 29.44126,24.712549 45.57035,34.79322402 16.12908,10.08067518 31.97431,19.03062998 43.17617,26.96527698 5.60093,3.967327 10.00687,7.708562 12.59045,10.707357 2.58358,2.998798 3.0334,4.805595 3.0334,5.441013 0,0.635416 -0.44982,2.442213 -3.0334,5.441011 -2.58358,2.998803 -6.98952,6.740038 -12.59045,10.707359 -11.20186,7.934643 -27.04709,16.884597 -43.17617,26.965275 -16.12909,10.080678 -32.61848,21.301682 -45.57035,34.793232 -12.95187,13.49153 -22.629624,29.8848 -22.629624,49.09312 0,18.99703 0.763548,34.06569 9.054224,46.04113 8.29068,11.97541 23.32961,16.87544 43.27901,16.87544 H 254 359.83333 c 19.9494,0 34.98834,-4.90003 43.27901,-16.87544 8.29069,-11.97544 9.05422,-27.0441 9.05422,-46.04113 0,-19.20832 -9.67774,-35.60159 -22.62962,-49.09312 C 376.58508,107.41508 360.09569,96.194076 343.96658,86.113398 327.8375,76.03272 311.99227,67.082766 300.79042,59.148123 c -5.60094,-3.967321 -10.00686,-7.708556 -12.59043,-10.707359 -2.58358,-2.998798 -3.03343,-4.805595 -3.03343,-5.441011 0,-0.635418 0.44985,-2.442215 3.03343,-5.441013 2.58357,-2.998795 6.98949,-6.74003 12.59043,-10.707357 11.20185,-7.934647 27.04708,-16.8846018 43.17616,-26.96527698 16.12911,-10.08067502 32.6185,-21.30169402 45.57036,-34.79322402 12.95188,-13.491532 22.62962,-29.884793 22.62962,-49.093127 0,-16.986105 -2.62316,-32.277595 -11.12282,-44.177145 -8.49968,-11.89956 -23.11318,-18.73943 -41.21041,-18.73943 H 254 Z m 0,19.99981 H 254 359.83333 c 13.65276,0 20.20594,3.74346 24.93542,10.36475 4.7295,6.62128 7.39801,17.788127 7.39801,32.552015 0,12.541665 -6.19725,23.929654 -17.05787,35.242809 -10.86064,11.313155 -26.12126,21.920263 -41.74215,31.683338 -15.62092,9.7630718 -31.52569,18.6724947 -44.13634,27.605032 -6.30531,4.466269 -11.82126,8.910582 -16.183,13.973307 -4.36173,5.062725 -7.88064,11.193428 -7.88064,18.495512 0,7.302079 3.51891,13.432793 7.88064,18.495515 4.36174,5.062723 9.87769,9.507035 16.183,13.973308 12.61065,8.932544 28.51542,17.841965 44.13634,27.605034 15.62089,9.76307 30.88151,20.37017 41.74215,31.68333 10.86062,11.31316 17.05787,22.70114 17.05787,35.24281 0,18.04464 -1.8823,29.43432 -5.49786,34.6568 -3.61558,5.2225 -9.7433,8.25997 -26.83557,8.25997 H 254 148.16666 c -17.09226,0 -23.22,-3.03747 -26.83557,-8.25997 -3.61556,-5.22248 -5.49785,-16.61216 -5.49785,-34.6568 0,-12.54167 6.19724,-23.92965 17.05787,-35.24281 10.86063,-11.31316 26.12124,-21.92026 41.74216,-31.68333 15.62091,-9.763069 31.52568,-18.67249 44.13632,-27.605034 6.30532,-4.466273 11.82126,-8.910585 16.18299,-13.973308 4.36173,-5.062722 7.88066,-11.193436 7.88066,-18.495515 0,-7.302084 -3.51893,-13.432787 -7.88066,-18.495512 -4.36173,-5.062725 -9.87767,-9.507038 -16.18299,-13.973307 -12.61064,-8.9325373 -28.51541,-17.8419602 -44.13632,-27.605032 -15.62092,-9.763075 -30.88153,-20.370183 -41.74216,-31.683338 -10.86063,-11.313155 -17.05787,-22.701144 -17.05787,-35.242809 0,-14.763888 2.66851,-25.930735 7.398,-32.552015 4.72948,-6.62129 11.28265,-10.36475 24.93542,-10.36475 z"
       id="path886"
       inkscape:connector-curvature="0" />
    <path
       style="fill:none;stroke:url(#linearGradient884);stroke-width:75.59055328;stroke-linecap:butt;stroke-linejoin:miter;stroke-miterlimit:4;stroke-dasharray:none;stroke-opacity:1"
       d="M 560 295.11719 C 440 295.11719 400 375.1172 400 495.11719 C 400 735.1172 880 855.11718 880 975.11719 C 880 1095.1172 400 1215.1172 400 1455.1172 C 400 1595.1172 419.99999 1655.1172 560 1655.1172 L 960 1655.1172 L 1360 1655.1172 C 1500 1655.1172 1520 1595.1172 1520 1455.1172 C 1520 1215.1172 1040 1095.1172 1040 975.11719 C 1040 855.11718 1520 735.1172 1520 495.11719 C 1520 375.1172 1480 295.11719 1360 295.11719 L 960 295.11719 L 560 295.11719 z "
       transform="matrix(0.26458333,0,0,0.26458333,0,-215)"
       id="path867" />
  </g>
</svg>
