<?xml version="1.0" encoding="UTF-8" standalone="no"?>
<!-- Created with Inkscape (http://www.inkscape.org/) -->

<svg
   xmlns:dc="http://purl.org/dc/elements/1.1/"
   xmlns:cc="http://creativecommons.org/ns#"
   xmlns:rdf="http://www.w3.org/1999/02/22-rdf-syntax-ns#"
   xmlns:svg="http://www.w3.org/2000/svg"
   xmlns="http://www.w3.org/2000/svg"
   xmlns:xlink="http://www.w3.org/1999/xlink"
   xmlns:sodipodi="http://sodipodi.sourceforge.net/DTD/sodipodi-0.dtd"
   xmlns:inkscape="http://www.inkscape.org/namespaces/inkscape"
   width="512mm"
   height="512mm"
   viewBox="0 0 512 512"
   version="1.1"
   id="svg3705"
   inkscape:version="0.92.2 2405546, 2018-03-11"
   sodipodi:docname="folder-publicshare.svg"
   inkscape:export-filename="/home/cybernix/Документы/neon/places/folder-publicshare.png"
   inkscape:export-xdpi="25.4"
   inkscape:export-ydpi="25.4">
  <defs
     id="defs3699">
    <linearGradient
       inkscape:collect="always"
       id="linearGradient1027">
      <stop
         style="stop-color:#ab47bc;stop-opacity:1"
         offset="0"
         id="stop1023" />
      <stop
         style="stop-color:#ffa726;stop-opacity:1"
         offset="1"
         id="stop1025" />
    </linearGradient>
    <filter
       inkscape:menu="Shadows and Glows"
       inkscape:menu-tooltip="Cut out, add inner shadow and colorize some parts of an image"
       style="color-interpolation-filters:sRGB;"
       inkscape:label="Emergence"
       id="filter1182">
      <feColorMatrix
         values="0 0 0 0 0 0 0 0 0 0 0 0 0 0 0 0.21 0.72 0.07 0 0 "
         result="result1"
         id="feColorMatrix1154" />
      <feColorMatrix
         values="1 0 0 0 0 0 1 0 0 0 0 0 1 0 0 0 0 0 2 0 "
         result="result9"
         id="feColorMatrix1156" />
      <feComposite
         in2="result9"
         in="SourceGraphic"
         operator="in"
         result="result4"
         id="feComposite1158" />
      <feFlood
         result="result2"
         flood-color="rgb(0,0,0)"
         id="feFlood1160" />
      <feComposite
         in2="result9"
         operator="in"
         result="result10"
         id="feComposite1162" />
      <feComposite
         in2="result4"
         operator="atop"
         id="feComposite1164" />
      <feGaussianBlur
         stdDeviation="3"
         result="result8"
         id="feGaussianBlur1166" />
      <feOffset
         dx="3"
         dy="3"
         result="result3"
         in="result8"
         id="feOffset1168" />
      <feFlood
         flood-opacity="1"
         flood-color="rgb(219,173,62)"
         result="result5"
         id="feFlood1170" />
      <feMerge
         result="result6"
         id="feMerge1178">
        <feMergeNode
           in="result5"
           id="feMergeNode1172" />
        <feMergeNode
           in="result3"
           id="feMergeNode1174" />
        <feMergeNode
           in="result4"
           id="feMergeNode1176" />
      </feMerge>
      <feComposite
         in2="SourceGraphic"
         operator="in"
         result="result7"
         id="feComposite1180" />
    </filter>
    <filter
       inkscape:menu="Shadows and Glows"
       inkscape:menu-tooltip="Cut out, add inner shadow and colorize some parts of an image"
       style="color-interpolation-filters:sRGB;"
       inkscape:label="Emergence"
       id="filter1212">
      <feColorMatrix
         values="0 0 0 0 0 0 0 0 0 0 0 0 0 0 0 0.21 0.72 0.07 0 0 "
         result="result1"
         id="feColorMatrix1184" />
      <feColorMatrix
         values="1 0 0 0 0 0 1 0 0 0 0 0 1 0 0 0 0 0 2 0 "
         result="result9"
         id="feColorMatrix1186" />
      <feComposite
         in2="result9"
         in="SourceGraphic"
         operator="in"
         result="result4"
         id="feComposite1188" />
      <feFlood
         result="result2"
         flood-color="rgb(0,0,0)"
         id="feFlood1190" />
      <feComposite
         in2="result9"
         operator="in"
         result="result10"
         id="feComposite1192" />
      <feComposite
         in2="result4"
         operator="atop"
         id="feComposite1194" />
      <feGaussianBlur
         stdDeviation="3"
         result="result8"
         id="feGaussianBlur1196" />
      <feOffset
         dx="3"
         dy="3"
         result="result3"
         in="result8"
         id="feOffset1198" />
      <feFlood
         flood-opacity="1"
         flood-color="rgb(219,173,62)"
         result="result5"
         id="feFlood1200" />
      <feMerge
         result="result6"
         id="feMerge1208">
        <feMergeNode
           in="result5"
           id="feMergeNode1202" />
        <feMergeNode
           in="result3"
           id="feMergeNode1204" />
        <feMergeNode
           in="result4"
           id="feMergeNode1206" />
      </feMerge>
      <feComposite
         in2="SourceGraphic"
         operator="in"
         result="result7"
         id="feComposite1210" />
    </filter>
    <linearGradient
       inkscape:collect="always"
       xlink:href="#linearGradient1027"
       id="linearGradient877"
       x1="687.91669"
       y1="159.41666"
       x2="687.91669"
       y2="-221.58334"
       gradientUnits="userSpaceOnUse"
       gradientTransform="translate(-508.00001,74.083337)" />
    <linearGradient
       inkscape:collect="always"
       xlink:href="#linearGradient1027"
       id="linearGradient876"
       gradientUnits="userSpaceOnUse"
       gradientTransform="translate(-179.91667,84.666669)"
       x1="328.08334"
       y1="148.83333"
       x2="328.08334"
       y2="-232.16667" />
    <linearGradient
       inkscape:collect="always"
       xlink:href="#linearGradient1027"
       id="linearGradient882"
       gradientUnits="userSpaceOnUse"
       gradientTransform="matrix(1,0,0,-1,-508.00001,245.37366)"
       x1="698.5"
       y1="11.87366"
       x2="698.5"
       y2="392.87366" />
    <linearGradient
       inkscape:collect="always"
       xlink:href="#linearGradient1027"
       id="linearGradient897"
       gradientUnits="userSpaceOnUse"
       gradientTransform="translate(-508.00001,74.083337)"
       x1="677.33331"
       y1="307.58334"
       x2="677.33331"
       y2="-94.583336" />
    <linearGradient
       inkscape:collect="always"
       xlink:href="#linearGradient1027"
       id="linearGradient899"
       gradientUnits="userSpaceOnUse"
       gradientTransform="translate(-179.91667,84.666669)"
       x1="328.08334"
       y1="297"
       x2="328.08334"
       y2="-105.16667" />
    <linearGradient
       inkscape:collect="always"
       xlink:href="#linearGradient1027"
       id="linearGradient901"
       gradientUnits="userSpaceOnUse"
       gradientTransform="matrix(1,0,0,-1,-508.00001,245.37366)"
       x1="698.5"
       y1="-136.293"
       x2="698.5"
       y2="265.87366" />
    <linearGradient
       inkscape:collect="always"
       xlink:href="#linearGradient1027"
       id="linearGradient966"
       gradientUnits="userSpaceOnUse"
       gradientTransform="matrix(3.7795276,0,0,3.7795276,-1920,1092.5984)"
       x1="687.91669"
       y1="159.41666"
       x2="687.91669"
       y2="-221.58334" />
    <filter
       inkscape:collect="always"
       style="color-interpolation-filters:sRGB"
       id="filter981"
       x="-0.11400357"
       width="1.2280071"
       y="-0.12666226"
       height="1.2533245">
      <feGaussianBlur
         inkscape:collect="always"
         stdDeviation="75.794004"
         id="feGaussianBlur983" />
    </filter>
  </defs>
  <sodipodi:namedview
     id="base"
     pagecolor="#ffffff"
     bordercolor="#666666"
     borderopacity="1.0"
     inkscape:pageopacity="0.0"
     inkscape:pageshadow="2"
     inkscape:zoom="0.067175145"
     inkscape:cx="1113.4644"
     inkscape:cy="1075.3807"
     inkscape:document-units="mm"
     inkscape:current-layer="layer1"
     showgrid="true"
     showguides="true"
     inkscape:guide-bbox="true"
     inkscape:window-width="1920"
     inkscape:window-height="1029"
     inkscape:window-x="0"
     inkscape:window-y="26"
     inkscape:window-maximized="1"
     inkscape:measure-start="0,0"
     inkscape:measure-end="0,0">
    <inkscape:grid
       type="xygrid"
       id="grid3707" />
    <sodipodi:guide
       position="613.83332,465.66665"
       orientation="0,1"
       id="guide3711"
       inkscape:locked="false" />
    <sodipodi:guide
       position="550.33332,42.333332"
       orientation="0,1"
       id="guide3715"
       inkscape:locked="false" />
    <sodipodi:guide
       position="253.99999,264.58333"
       orientation="1,0"
       id="guide3717"
       inkscape:locked="false" />
    <sodipodi:guide
       position="169.33333,253.99999"
       orientation="0,1"
       id="guide3719"
       inkscape:locked="false" />
    <sodipodi:guide
       position="455.08332,42.333332"
       orientation="0,1"
       id="guide3742"
       inkscape:locked="false" />
    <sodipodi:guide
       position="571.49998,592.66665"
       orientation="4.2706773e-08,-1"
       id="guide3744"
       inkscape:locked="false" />
    <sodipodi:guide
       position="529.16665,465.66665"
       orientation="0,1"
       id="guide3748"
       inkscape:locked="false" />
    <sodipodi:guide
       position="571.49998,613.83332"
       orientation="0,1"
       id="guide888"
       inkscape:locked="false" />
    <sodipodi:guide
       position="253.99999,296.33333"
       orientation="1,0"
       id="guide976"
       inkscape:locked="false" />
    <sodipodi:guide
       position="253.99999,296.33333"
       orientation="1,0"
       id="guide978"
       inkscape:locked="false" />
    <sodipodi:guide
       position="507.99999,698.49998"
       orientation="0,1"
       id="guide946"
       inkscape:locked="false" />
    <sodipodi:guide
       position="42.333332,550.33332"
       orientation="1,0"
       id="guide948"
       inkscape:locked="false" />
    <sodipodi:guide
       position="1270,42.333332"
       orientation="0,1"
       id="guide950"
       inkscape:locked="false" />
    <sodipodi:guide
       position="21.166666,444.49999"
       orientation="0,1"
       id="guide2591"
       inkscape:locked="false" />
    <sodipodi:guide
       position="529.16665,63.499998"
       orientation="0,1"
       id="guide2593"
       inkscape:locked="false" />
    <sodipodi:guide
       position="148.16666,328.08332"
       orientation="1,0"
       id="guide878"
       inkscape:locked="false" />
  </sodipodi:namedview>
  <metadata
     id="metadata3702">
    <rdf:RDF>
      <cc:Work
         rdf:about="">
        <dc:format>image/svg+xml</dc:format>
        <dc:type
           rdf:resource="http://purl.org/dc/dcmitype/StillImage" />
        <dc:title></dc:title>
      </cc:Work>
    </rdf:RDF>
  </metadata>
  <g
     inkscape:label="Layer 1"
     inkscape:groupmode="layer"
     id="layer1"
     transform="translate(0,215)">
    <g
       id="g954">
      <g
         id="g944">
        <path
           style="color:#000000;font-style:normal;font-variant:normal;font-weight:normal;font-stretch:normal;font-size:medium;line-height:normal;font-family:sans-serif;font-variant-ligatures:normal;font-variant-position:normal;font-variant-caps:normal;font-variant-numeric:normal;font-variant-alternates:normal;font-feature-settings:normal;text-indent:0;text-align:start;text-decoration:none;text-decoration-line:none;text-decoration-style:solid;text-decoration-color:#000000;letter-spacing:normal;word-spacing:normal;text-transform:none;writing-mode:lr-tb;direction:ltr;text-orientation:mixed;dominant-baseline:auto;baseline-shift:baseline;text-anchor:start;white-space:normal;shape-padding:0;clip-rule:nonzero;display:inline;overflow:visible;visibility:visible;opacity:1;isolation:auto;mix-blend-mode:normal;color-interpolation:sRGB;color-interpolation-filters:linearRGB;solid-color:#000000;solid-opacity:1;vector-effect:none;fill:url(#linearGradient966);fill-opacity:1;fill-rule:nonzero;stroke:none;stroke-width:75.59055328;stroke-linecap:round;stroke-linejoin:round;stroke-miterlimit:4;stroke-dasharray:none;stroke-dashoffset:0;stroke-opacity:1;filter:url(#filter981);color-rendering:auto;image-rendering:auto;shape-rendering:auto;text-rendering:auto;enable-background:accumulate"
           d="m 1359.998,257.32617 c -108.9248,0 -197.791,88.86423 -197.791,197.78906 0,108.92484 88.8662,197.79883 197.791,197.79883 108.9249,0 197.7969,-88.87399 197.7969,-197.79883 0,-108.92483 -88.872,-197.78906 -197.7969,-197.78906 z m 0,75.58985 c 68.3552,0 122.2071,53.84404 122.2071,122.19921 0,68.35518 -53.8519,122.20704 -122.2071,122.20704 -68.3551,0 -122.2011,-53.85186 -122.2011,-122.20704 0,-68.35517 53.846,-122.19921 122.2011,-122.19921 z m 199.9903,326.25 c -49.9179,0.0196 -81.3493,28.84103 -105.0449,46.71289 -23.6957,17.87186 -43.1475,31.44726 -94.9454,31.44726 -51.601,0 -75.4688,-14.71649 -100.4375,-32.66601 -12.4843,-8.97476 -24.7427,-19.35573 -40.5722,-28.75977 -15.7063,-9.33083 -36.3863,-17.26472 -59.6153,-16.68359 -46.3923,0.28917 -82.6794,31.72509 -106.8613,69.62695 -24.2937,38.07723 -41.0872,85.90887 -54.16795,137.99023 -26.16142,104.16273 -36.14062,225.13162 -36.14063,308.28122 a 37.799055,37.799055 0 1 0 75.58988,0 c 0,-76.8504 10.0227,-194.94899 33.8613,-289.86325 11.9193,-47.45714 27.6297,-89.17139 44.5859,-115.74804 16.9563,-26.57666 30.4608,-34.74805 43.7598,-34.74805 a 37.799055,37.799055 0 0 0 1.1582,-0.0137 c 6.5485,-0.20145 10.6771,1.0717 19.2227,6.14843 8.5455,5.07678 20.041,14.35591 35.0566,25.1504 30.0313,21.58896 76.1616,46.875 144.5605,46.875 68.2022,0 112.3573,-25.49344 140.4629,-46.69141 28.1057,-21.19801 36.6798,-31.45983 59.5567,-31.46875 13.1968,-0.004 26.3165,8.02416 43.0136,34.70898 16.6972,26.68483 32.0845,68.63067 43.7891,116.28125 23.4092,95.30109 33.4895,213.48854 35.3965,290.30664 a 37.799055,37.799055 0 1 0 75.5684,-1.875 c -2.0182,-81.2966 -11.9413,-202.20796 -37.5508,-306.46679 -12.8048,-52.12944 -29.1816,-100.07673 -53.1211,-138.33594 -23.9395,-38.25922 -60.3219,-70.22724 -107.125,-70.20898 z m -999.99025,78.16015 c -108.92485,0 -197.79102,88.86423 -197.79102,197.78906 0,108.92487 88.86617,197.79887 197.79102,197.79887 108.92481,0 197.79687,-88.874 197.79687,-197.79887 0,-108.92483 -88.87206,-197.78906 -197.79687,-197.78906 z m 0,75.58985 c 68.35513,0 122.20703,53.84404 122.20703,122.19921 0,68.35517 -53.8519,122.20707 -122.20703,122.20707 -68.35518,0 -122.20117,-53.8519 -122.20117,-122.20707 0,-68.35517 53.84599,-122.19921 122.20117,-122.19921 z m 999.43555,3.87304 a 37.799055,37.799055 0 0 0 -37.2266,38.32813 c 0,138.2002 -12.9721,213.01571 -33.6543,244.03901 -10.3411,15.5117 -21.0523,23.0655 -40.9765,29.2325 -19.9243,6.167 -49.153,8.9316 -87.5782,8.9316 -38.4252,0 -67.6479,-2.7646 -87.5722,-8.9316 -19.9243,-6.167 -30.6355,-13.7208 -40.9766,-29.2325 -20.6822,-31.0233 -33.6543,-105.83881 -33.6543,-244.03901 a 37.799055,37.799055 0 0 0 -38.3633,-38.32617 37.799055,37.799055 0 0 0 -37.2265,38.32617 c 0,141.79978 7.0318,226.99201 46.3496,285.96871 19.6589,29.4884 48.9438,49.4288 81.5195,59.5118 32.5758,10.0829 68.349,12.3125 109.9238,12.3125 41.5749,0 77.354,-2.2296 109.9297,-12.3125 32.5758,-10.083 61.8607,-30.0234 81.5196,-59.5118 39.3178,-58.9767 46.3496,-144.16893 46.3496,-285.96871 a 37.799055,37.799055 0 0 0 -38.3633,-38.32813 z M 759.98828,1139.166 c -49.91792,0.02 -81.34929,28.841 -105.04492,46.7129 -23.69567,17.8719 -43.14745,31.4473 -94.94531,31.4473 -51.60106,0 -75.4708,-14.7165 -100.43946,-32.666 -12.48434,-8.9748 -24.74082,-19.3558 -40.57031,-28.7598 -15.70624,-9.3308 -36.38623,-17.2647 -59.61523,-16.6836 -46.39232,0.2892 -82.67945,31.7251 -106.86133,69.627 -24.29376,38.0772 -41.08726,85.9088 -54.16797,137.9902 -26.16142,104.1627 -36.14063,225.1316 -36.14063,308.2812 a 37.799055,37.799055 0 1 0 75.58985,0 c 0,-76.8504 10.02274,-194.949 33.86133,-289.8632 11.91929,-47.4572 27.62968,-89.1714 44.58593,-115.7481 16.95625,-26.5766 30.46077,-34.748 43.75977,-34.748 a 37.799055,37.799055 0 0 0 1.1582,-0.014 c 6.54845,-0.2015 10.67714,1.0717 19.22266,6.1484 8.54551,5.0768 20.04099,14.3559 35.05664,25.1504 30.03129,21.589 76.16161,46.875 144.56055,46.875 68.20214,0 112.35722,-25.4934 140.46289,-46.6914 28.10566,-21.198 36.67976,-31.4598 59.55664,-31.4687 13.19686,0 26.31647,8.0241 43.01367,34.7089 16.6972,26.6849 32.08443,68.6307 43.78906,116.2813 23.40919,95.3011 33.48953,213.4885 35.39649,290.3066 a 37.799055,37.799055 0 1 0 75.56836,-1.875 c -2.01812,-81.2966 -11.94127,-202.2079 -37.55078,-306.4668 -12.80478,-52.1294 -29.18157,-100.0767 -53.1211,-138.3359 -23.93953,-38.2592 -60.32186,-70.2272 -107.125,-70.209 z m -0.55469,157.6231 a 37.799055,37.799055 0 0 0 -37.22656,38.3281 c 0,138.2002 -12.97212,213.0157 -33.6543,244.039 -10.34112,15.5117 -21.05229,23.0655 -40.97656,29.2325 -19.92427,6.167 -49.15295,8.9316 -87.57812,8.9316 -38.42521,0 -67.648,-2.7646 -87.57227,-8.9316 -19.92423,-6.167 -30.63547,-13.7208 -40.97656,-29.2325 -20.68222,-31.0233 -33.6543,-105.8388 -33.6543,-244.039 a 37.799055,37.799055 0 0 0 -38.36328,-38.3262 37.799055,37.799055 0 0 0 -37.22656,38.3262 c 0,141.7998 7.03182,226.992 46.34961,285.9687 19.6589,29.4884 48.94378,49.4288 81.51953,59.5118 32.57575,10.0829 68.34902,12.3125 109.92383,12.3125 41.5748,0 77.35394,-2.2296 109.92968,-12.3125 32.57575,-10.083 61.86066,-30.0234 81.51954,-59.5118 39.31782,-58.9767 46.34961,-144.1689 46.34961,-285.9687 a 37.799055,37.799055 0 0 0 -38.36329,-38.3281 z"
           id="path938"
           transform="matrix(0.26458333,0,0,0.26458333,5.3369999e-4,-215)"
           inkscape:connector-curvature="0" />
      </g>
      <g
         id="g952"
         transform="translate(211.66667,-127)" />
    </g>
    <g
       id="g911">
      <g
         id="g887">
        <path
           style="fill:none;stroke:url(#linearGradient877);stroke-width:20;stroke-linecap:round;stroke-linejoin:round;stroke-miterlimit:4;stroke-dasharray:none;stroke-opacity:1"
           d="M 52.91666,222.91667 C 52.91666,180.58334 63.5,96.405109 95.25,96.405109 c 15.875,-0.488442 21.16667,20.678221 52.91666,20.678221 31.75001,0 33.65639,-20.670708 52.91667,-20.678221 31.75,-0.01238 41.29483,84.677011 42.33334,126.511561"
           id="path869"
           inkscape:connector-curvature="0"
           sodipodi:nodetypes="cccsc" />
        <rect
           ry="42.333336"
           rx="42.333332"
           y="-9.916667"
           x="105.83333"
           height="84.666672"
           width="84.666664"
           id="rect874"
           style="opacity:1;fill:none;fill-opacity:1;stroke:url(#linearGradient876);stroke-width:20;stroke-linecap:round;stroke-linejoin:round;stroke-miterlimit:4;stroke-dasharray:none;stroke-opacity:1" />
        <path
           sodipodi:nodetypes="ccc"
           inkscape:connector-curvature="0"
           id="path880"
           d="m 95.25,138.25 c 0,74.08333 10.58333,84.66667 52.91666,84.66667 42.33334,0 52.91667,-10.58334 52.91667,-84.66667"
           style="fill:none;stroke:url(#linearGradient882);stroke-width:20;stroke-linecap:round;stroke-linejoin:round;stroke-miterlimit:4;stroke-dasharray:none;stroke-opacity:1" />
      </g>
      <g
         transform="translate(211.66667,-127)"
         id="g895">
        <path
           sodipodi:nodetypes="cccsc"
           inkscape:connector-curvature="0"
           id="path889"
           d="M 52.91666,222.91667 C 52.91666,180.58334 63.5,96.405109 95.25,96.405109 c 15.875,-0.488442 21.16667,20.678221 52.91666,20.678221 31.75001,0 33.65639,-20.670708 52.91667,-20.678221 31.75,-0.01238 41.29483,84.677011 42.33334,126.511561"
           style="fill:none;stroke:url(#linearGradient897);stroke-width:20;stroke-linecap:round;stroke-linejoin:round;stroke-miterlimit:4;stroke-dasharray:none;stroke-opacity:1" />
        <rect
           style="opacity:1;fill:none;fill-opacity:1;stroke:url(#linearGradient899);stroke-width:20;stroke-linecap:round;stroke-linejoin:round;stroke-miterlimit:4;stroke-dasharray:none;stroke-opacity:1"
           id="rect891"
           width="84.666664"
           height="84.666672"
           x="105.83333"
           y="-9.916667"
           rx="42.333332"
           ry="42.333336" />
        <path
           style="fill:none;stroke:url(#linearGradient901);stroke-width:20;stroke-linecap:round;stroke-linejoin:round;stroke-miterlimit:4;stroke-dasharray:none;stroke-opacity:1"
           d="m 95.25,138.25 c 0,74.08333 10.58333,84.66667 52.91666,84.66667 42.33334,0 52.91667,-10.58334 52.91667,-84.66667"
           id="path893"
           inkscape:connector-curvature="0"
           sodipodi:nodetypes="ccc" />
      </g>
    </g>
  </g>
</svg>
